<?xml version="1.0" encoding="UTF-8" standalone="no"?>
<svg
   xmlns:dc="http://purl.org/dc/elements/1.1/"
   xmlns:cc="http://creativecommons.org/ns#"
   xmlns:rdf="http://www.w3.org/1999/02/22-rdf-syntax-ns#"
   xmlns:svg="http://www.w3.org/2000/svg"
   xmlns="http://www.w3.org/2000/svg"
   id="svg2"
   preserveAspectRatio="xMidYMid meet"
   viewBox="0 0 67.000000 67.000000"
   height="67.000000pt"
   width="67.000000pt"
   version="1.0">
  <defs
     id="defs12" />
  <metadata
     id="metadata4">
Created by potrace 1.13, written by Peter Selinger 2001-2015
<rdf:RDF>
  <cc:Work
     rdf:about="">
    <dc:format>image/svg+xml</dc:format>
    <dc:type
       rdf:resource="http://purl.org/dc/dcmitype/StillImage" />
    <dc:title></dc:title>
  </cc:Work>
</rdf:RDF>
</metadata>
  <g
     style="fill:#ffb300;fill-opacity:1"
     id="g6"
     stroke="none"
     fill="#000000"
     transform="translate(0.000000,67.000000) scale(0.100000,-0.100000)">
    <path
       style="fill:#ffb300;fill-opacity:1"
       id="path8"
       d="M27 642 c-15 -16 -17 -52 -17 -301 0 -175 4 -290 10 -302 10 -18 24 -19 308 -19 219 0 301 3 310 12 9 9 12 91 12 310 0 284 -1 298 -19 308 -12 6 -127 10 -304 10 -262 0 -285 -1 -300 -18z m304 -72 c20 -11 26 -54 9 -65 -5 -3 -10 -13 -10 -21 0 -11 16 -14 70 -14 l69 0 3 -57 3 -58 45 0 45 0 0 -40 c0 -34 -3 -40 -24 -43 -13 -2 -28 1 -34 7 -6 6 -18 11 -25 11 -12 0 -14 -13 -9 -74 l7 -74 -28 -6 c-88 -17 -109 -17 -122 -1 -11 13 -10 19 5 35 31 34 0 69 -50 56 -19 -5 -25 -13 -25 -34 0 -15 5 -33 12 -40 18 -18 -33 -32 -91 -25 -56 6 -58 9 -63 93 -3 51 -1 55 20 58 12 2 22 -2 22 -8 0 -6 12 -10 28 -8 23 3 27 7 27 37 0 44 -24 60 -59 41 -14 -7 -28 -11 -30 -9 -6 6 -8 45 -7 99 l1 46 66 -4 c69 -5 99 7 76 30 -18 18 -15 55 6 67 22 13 39 13 63 1z" />
  </g>
  <path
     transform="scale(0.8,0.8)"
     id="path4134"
     d="m 43.372166,67.981398 c -1.314591,-0.304914 -2.840988,-1.875308 -2.843921,-2.925895 -9.7e-4,-0.347307 0.637009,-1.439574 1.417729,-2.427259 1.894915,-2.397245 2.050974,-4.388994 0.473703,-6.04576 -1.876895,-1.971489 -6.691093,-2.038656 -8.914405,-0.124376 -0.886081,0.762923 -0.963046,1.038479 -0.958653,3.432263 0.0039,2.104176 0.171273,2.89511 0.873967,4.129028 1.044809,1.83466 0.787545,2.490206 -1.268241,3.231678 -1.809873,0.652774 -9.546282,0.698493 -12.349316,0.07298 -3.73012,-0.832397 -4.237422,-1.886125 -4.807036,-9.984782 -0.51311,-7.295285 -0.198284,-8.135013 3.055181,-8.149045 0.819981,-0.0035 1.316238,0.258951 1.835886,0.971056 0.64798,0.887971 0.905198,0.972405 2.85469,0.937099 3.693898,-0.0669 4.611198,-1.337711 4.204339,-5.824619 -0.433623,-4.782074 -2.885883,-6.104296 -7.623274,-4.110356 -2.575956,1.084205 -3.461673,1.154367 -3.83122,0.303491 -0.148346,-0.341565 -0.343827,-4.342239 -0.434401,-8.890387 l -0.164681,-8.269359 2.791826,0.261894 c 4.791435,0.449472 12.943629,0.356933 14.414072,-0.16362 1.907646,-0.675328 2.06719,-1.720278 0.579042,-3.792487 -0.983685,-1.369757 -1.174881,-1.94855 -1.174881,-3.556625 0,-2.341965 0.774017,-3.552428 2.998322,-4.688992 3.934959,-2.010666 8.338956,0.03052 9.001192,4.171922 0.255111,1.595375 -0.156229,2.868231 -1.407443,4.355215 -0.626593,0.744663 -0.863667,1.3967 -0.788485,2.168605 0.165681,1.701066 1.405842,1.947659 9.912158,1.970933 l 7.320541,0.02003 0.233631,5.944121 c 0.128496,3.269266 0.321607,6.542969 0.429137,7.274894 l 0.195507,1.330773 5.469336,0 5.469336,0 0,4.232718 c 0,4.149994 -0.01828,4.247094 -0.93504,4.968221 -1.453946,1.143673 -4.01314,1.002093 -6.381675,-0.353046 -1.171631,-0.670337 -2.274594,-1.045267 -2.870887,-0.9759 -1.793712,0.208669 -1.840257,1.505172 -0.573194,15.967015 l 0.207576,2.369196 -1.377255,0.365473 c -1.847762,0.490327 -9.414512,1.720356 -11.846008,1.92565 -1.07349,0.09063 -2.50771,0.03585 -3.187155,-0.121743 z"
     style="fill:#ffffff;fill-opacity:1;stroke:#ffffff;stroke-width:0;stroke-miterlimit:4;stroke-dasharray:none;stroke-opacity:1" />
</svg>
